GIL04_fast2_ik
nRows=3
nColumns=375

# SIMM Motion File Header:
name GIL04_fast2_ik
datacolumns 375
datarows 3
otherdata 1
range 0.58333000 0.60000000
endheader
time	pelvis_tx	pelvis_ty	pelvis_tz	pelvis_tilt	pelvis_list	pelvis_rotation	hip_flexion_r	hip_adduction_r	hip_rotation_r	knee_angle_r	ankle_angle_r	hip_flexion_l	hip_adduction_l	hip_rotation_l	knee_angle_l	ankle_angle_l	lumbar_extension	lumbar_bending	lumbar_rotation	subtalar_angle_r	mtp_angle_r	subtalar_angle_l	mtp_angle_l	asis_r_px	asis_r_py	asis_r_pz	asis_l_px	asis_l_py	asis_l_pz	midasis_px	midasis_py	midasis_pz	psis_r_px	psis_r_py	psis_r_pz	psis_l_px	psis_l_py	psis_l_pz	hip_r_px	hip_r_py	hip_r_pz	hip_l_px	hip_l_py	hip_l_pz	midhip_px	midhip_py	midhip_pz	epicondLat_r_px	epicondLat_r_py	epicondLat_r_pz	epicondMed_r_px	epicondMed_r_py	epicondMed_r_pz	thighwand_r_px	thighwand_r_py	thighwand_r_pz	upperleg1_r_px	upperleg1_r_py	upperleg1_r_pz	upperleg2_r_px	upperleg2_r_py	upperleg2_r_pz	malleolusLat_r_px	malleolusLat_r_py	malleolusLat_r_pz	malleolusMedv_r_px	malleolusMedv_r_py	malleolusMedv_r_pz	shankwand_r_px	shankwand_r_py	shankwand_r_pz	lowerleg1_r_px	lowerleg1_r_py	lowerleg1_r_pz	knee_r_px	knee_r_py	knee_r_pz	ankle_r_px	ankle_r_py	ankle_r_pz	toe_r_px	toe_r_py	toe_r_pz	epicondLat_l_px	epicondLat_l_py	epicondLat_l_pz	epicondMed_l_px	epicondMed_l_py	epicondMed_l_pz	thighwand_l_px	thighwand_l_py	thighwand_l_pz	upperleg1_l_px	upperleg1_l_py	upperleg1_l_pz	upperleg2_l_px	upperleg2_l_py	upperleg2_l_pz	malleolusLat_l_px	malleolusLat_l_py	malleolusLat_l_pz	malleolusMedv_l_px	malleolusMedv_l_py	malleolusMedv_l_pz	shankwand_l_px	shankwand_l_py	shankwand_l_pz	lowerleg1_l_px	lowerleg1_l_py	lowerleg1_l_pz	knee_l_px	knee_l_py	knee_l_pz	ankle_l_px	ankle_l_py	ankle_l_pz	toe_l_px	toe_l_py	toe_l_pz	subclavicle_r_px	subclavicle_r_py	subclavicle_r_pz	subclavicle_l_px	subclavicle_l_py	subclavicle_l_pz	neck_px	neck_py	neck_pz	sternalnotch_px	sternalnotch_py	sternalnotch_pz	xyphoidprocess_px	xyphoidprocess_py	xyphoidprocess_pz	midhip_tx	midhip_ty	midhip_tz	hip_r_tx	hip_r_ty	hip_r_tz	hip_l_tx	hip_l_ty	hip_l_tz	knee_r_tx	knee_r_ty	knee_r_tz	knee_l_tx	knee_l_ty	knee_l_tz	ankle_r_tx	ankle_r_ty	ankle_r_tz	ankle_l_tx	ankle_l_ty	ankle_l_tz	midasis_tx	midasis_ty	midasis_tz	asis_r_tx	asis_r_ty	asis_r_tz	asis_l_tx	asis_l_ty	asis_l_tz	psis_r_tx	psis_r_ty	psis_r_tz	psis_l_tx	psis_l_ty	psis_l_tz	epicondLat_r_tx	epicondLat_r_ty	epicondLat_r_tz	epicondLat_l_tx	epicondLat_l_ty	epicondLat_l_tz	epicondMed_r_tx	epicondMed_r_ty	epicondMed_r_tz	epicondMed_l_tx	epicondMed_l_ty	epicondMed_l_tz	malleolusLat_r_tx	malleolusLat_r_ty	malleolusLat_r_tz	malleolusLat_l_tx	malleolusLat_l_ty	malleolusLat_l_tz	malleolusMedv_r_tx	malleolusMedv_r_ty	malleolusMedv_r_tz	malleolusMedv_l_tx	malleolusMedv_l_ty	malleolusMedv_l_tz	neck_tx	neck_ty	neck_tz	subclavicle_r_tx	subclavicle_r_ty	subclavicle_r_tz	subclavicle_l_tx	subclavicle_l_ty	subclavicle_l_tz	sternalnotch_tx	sternalnotch_ty	sternalnotch_tz	xyphoidprocess_tx	xyphoidprocess_ty	xyphoidprocess_tz	thighwand_r_tx	thighwand_r_ty	thighwand_r_tz	thighwand_l_tx	thighwand_l_ty	thighwand_l_tz	upperleg1_r_tx	upperleg1_r_ty	upperleg1_r_tz	upperleg1_l_tx	upperleg1_l_ty	upperleg1_l_tz	upperleg2_r_tx	upperleg2_r_ty	upperleg2_r_tz	upperleg2_l_tx	upperleg2_l_ty	upperleg2_l_tz	shankwand_r_tx	shankwand_r_ty	shankwand_r_tz	shankwand_l_tx	shankwand_l_ty	shankwand_l_tz	lowerleg1_r_tx	lowerleg1_r_ty	lowerleg1_r_tz	lowerleg1_l_tx	lowerleg1_l_ty	lowerleg1_l_tz	toe_r_tx	toe_r_ty	toe_r_tz	toe_l_tx	toe_l_ty	toe_l_tz	ground_force_vx	ground_force_vy	ground_force_vz	ground_force_px	ground_force_py	ground_force_pz	ground_force_vx	ground_force_vy	ground_force_vz	ground_force_px	ground_force_py	ground_force_pz	ground_torque_x	ground_torque_y	ground_torque_z	ground_torque_x	ground_torque_y	ground_torque_z	ground_marker_px	ground_marker_py	ground_marker_pz	ground_marker_px	ground_marker_py	ground_marker_pz	ground_marker_px	ground_marker_py	ground_marker_pz	ground_marker_px	ground_marker_py	ground_marker_pz	ground_marker_px	ground_marker_py	ground_marker_pz	ground_marker_px	ground_marker_py	ground_marker_pz	ground_marker_px	ground_marker_py	ground_marker_pz	ground_marker_px	ground_marker_py	ground_marker_pz	ground_marker_px	ground_marker_py	ground_marker_pz	ground_marker_px	ground_marker_py	ground_marker_pz	ground_marker_px	ground_marker_py	ground_marker_pz	ground_marker_px	ground_marker_py	ground_marker_pz	ground_marker_px	ground_marker_py	ground_marker_pz	ground_marker_px	ground_marker_py	ground_marker_pz	ground_marker_px	ground_marker_py	ground_marker_pz	ground_marker_px	ground_marker_py	ground_marker_pz	ground_marker_px	ground_marker_py	ground_marker_pz	ground_marker_px	ground_marker_py	ground_marker_pz	ground_marker_px	ground_marker_py	ground_marker_pz	ground_marker_px	ground_marker_py	ground_marker_pz	ground_marker_px	ground_marker_py	ground_marker_pz	ground_marker_px	ground_marker_py	ground_marker_pz	ground_marker_px	ground_marker_py	ground_marker_pz	ground_marker_px	ground_marker_py	ground_marker_pz	ground_marker_px	ground_marker_py	ground_marker_pz	ground_marker_px	ground_marker_py	ground_marker_pz	ground_marker_px	ground_marker_py	ground_marker_pz	ground_marker_px	ground_marker_py	ground_marker_pz	ground_marker_px	ground_marker_py	ground_marker_pz	ground_marker_px	ground_marker_py	ground_marker_pz	ground_marker_px	ground_marker_py	ground_marker_pz	ground_marker_px	ground_marker_py	ground_marker_pz	ground_marker_px	ground_marker_py	ground_marker_pz	ground_marker_px	ground_marker_py	ground_marker_pz	ground_marker_px	ground_marker_py	ground_marker_pz	ground_marker_px	ground_marker_py	ground_marker_pz	ground_marker_px	ground_marker_py	ground_marker_pz
      0.58333000	      1.85379253	      0.70316301	     -0.16637609	     -3.83871825	      3.54927594	     -1.15529421	    -20.45926986	     -2.11211275	     -0.35079021	    -20.30137448	    -13.79439782	     33.99437689	      4.80612503	     -5.74463985	    -19.07715155	     -8.32140909	     -1.46057627	     -8.13640414	      9.25699657	      0.00000000	      0.00000000	      0.00000000	      0.00000000	      1.88926702	      0.68972500	     -0.07352899	      1.89517465	      0.69494393	     -0.26019473	      1.86398408	      0.70246639	     -0.16617047	      1.75780705	      0.76263794	     -0.14979120	      1.75806716	      0.75930446	     -0.20462404	      1.79762335	      0.65495970	     -0.10959064	      1.80058023	      0.66232188	     -0.23121108	      1.79910179	      0.65864079	     -0.17040086	      1.64883268	      0.34680711	     -0.06544702	      1.64919480	      0.35509735	     -0.16561579	      1.69591505	      0.43472241	      0.01283410	      1.75591820	      0.47285290	     -0.05300377	      1.72457462	      0.39548024	     -0.06888032	      1.42399296	      0.12281962	     -0.08597077	      1.43498827	      0.12733425	     -0.14489743	      1.47892968	      0.21177170	     -0.01202833	      1.52732745	      0.24411441	     -0.07083010	      1.66177248	      0.35642579	     -0.11885113	      1.43727893	      0.12911266	     -0.12767841	      1.46124412	      0.02591164	     -0.11872729	      1.96388475	      0.36598609	     -0.26333726	      1.97379910	      0.36803496	     -0.15970005	      2.03333261	      0.51868606	     -0.26081882	      1.95111409	      0.54081406	     -0.20160198	      1.98059461	      0.45870573	     -0.19195450	      2.01660514	      0.05168048	     -0.24290071	      2.02163716	      0.05774346	     -0.17971239	      2.08506941	      0.16734386	     -0.25506220	      2.01626940	      0.21097557	     -0.23041184	      1.96323697	      0.37785205	     -0.21683840	      2.02327936	      0.06447231	     -0.19854658	      2.11980385	      0.03636589	     -0.22249037	      1.83704168	      1.07939107	     -0.13053043	      1.82794858	      1.07731155	     -0.24555397	      1.75337113	      1.09393133	     -0.18123097	      1.83123733	      1.06586490	     -0.19030084	      1.89575091	      0.93679254	     -0.19240081	      1.80252100	      0.64885100	     -0.17462100	      1.79487100	      0.65142200	     -0.10748100	      1.80046000	      0.65789200	     -0.23301900	      1.66630900	      0.36502700	     -0.11935800	      1.96112800	      0.37960100	     -0.21010200	      1.43519900	      0.12987900	     -0.11243900	      2.02209600	      0.06095600	     -0.21433000	      1.86523700	      0.71585800	     -0.16408800	      1.86104400	      0.71100400	     -0.06989700	      1.86943000	      0.72071300	     -0.25827900	      1.72071200	      0.76015000	     -0.15462700	      1.72095300	      0.75534300	     -0.20947200	      1.66427100	      0.36385000	     -0.06891300	      1.96128300	      0.37558700	     -0.25994000	      1.66419900	      0.36634100	     -0.16775500	      1.97591600	      0.38733800	     -0.15555200	      1.43088100	      0.13508800	     -0.07962900	      2.01488900	      0.06002400	     -0.24805600	      1.43513000	      0.13864000	     -0.13873300	      2.01758200	      0.06677600	     -0.18570800	      1.75436200	      1.10066200	     -0.18264100	      1.84224000	      1.06699500	     -0.12337400	      1.83405600	      1.06495100	     -0.24987600	      1.83288100	      1.05365900	     -0.18839700	      1.87190900	      0.91495600	     -0.18819700	      1.70158200	      0.45004600	      0.01175400	      2.02672700	      0.53700700	     -0.25595700	      1.75403100	      0.49526800	     -0.05320100	      1.93863300	      0.55556600	     -0.20534800	      1.73357100	      0.41493000	     -0.07028600	      1.97585300	      0.47728500	     -0.19036100	      1.49225000	      0.21993300	     -0.00833700	      2.08466900	      0.17393400	     -0.25628000	      1.53514200	      0.25020400	     -0.06899800	      2.01537300	      0.21866300	     -0.23064300	      1.46959000	      0.04369300	     -0.12043100	      2.11398200	      0.04565900	     -0.21922200	     25.52726647	     70.20818120	      4.69891450	      1.48600366	      0.00000000	     -0.13292067	    -59.67783406	    281.97188936	      6.14322685	      2.00994446	      0.00000000	     -0.21998495	      0.00000000	      0.12086557	      0.00000000	      0.00000000	      1.41200977	      0.00000000	      1.80252051	      0.64885056	     -0.17462118	      1.79487133	      0.65142244	     -0.10748109	      1.80045974	      0.65789229	     -0.23301923	      1.66630948	      0.36502677	     -0.11935814	      1.96112752	      0.37960127	     -0.21010178	      1.43519890	      0.12987888	     -0.11243866	      2.02209616	      0.06095551	     -0.21432991	      1.86523724	      0.71585840	     -0.16408807	      1.86104429	      0.71100408	     -0.06989742	      1.86943018	      0.72071272	     -0.25827873	      1.72071171	      0.76015002	     -0.15462701	      1.72095323	      0.75534332	     -0.20947216	      1.66427124	      0.36384976	     -0.06891303	      1.96128309	      0.37558681	     -0.25994012	      1.66419864	      0.36634123	     -0.16775493	      1.97591591	      0.38733816	     -0.15555234	      1.43088126	      0.13508788	     -0.07962900	      2.01488876	      0.06002400	     -0.24805582	      1.43512976	      0.13864002	     -0.13873337	      2.01758170	      0.06677618	     -0.18570773	      1.75436234	      1.10066223	     -0.18264051	      1.84224033	      1.06699526	     -0.12337408	      1.83405554	      1.06495106	     -0.24987569	      1.83288097	      1.05365932	     -0.18839730	      1.87190866	      0.91495562	     -0.18819696	      1.70158219	      0.45004585	      0.01175378	      2.02672672	      0.53700697	     -0.25595677	      1.75403094	      0.49526757	     -0.05320145	      1.93863308	      0.55556571	     -0.20534813	      1.73357141	      0.41492999	     -0.07028588	      1.97585332	      0.47728518	     -0.19036126	      1.49224973	      0.21993276	     -0.00833742	      2.08466935	      0.17393406	     -0.25628027	      1.53514206	      0.25020361	     -0.06899788	      2.01537275	      0.21866271	     -0.23064314	      1.46959043	      0.04369341	     -0.12043063	      2.11398220	      0.04565949	     -0.21922185
      0.59167000	      1.86666245	      0.70454897	     -0.16850749	     -3.81145255	      4.02281742	     -0.77517398	    -19.50485962	     -2.85754999	     -0.58906813	    -22.94939101	    -16.66248534	     33.45652538	      5.80896719	     -4.86079183	    -20.12164844	     -7.83877677	     -1.44035905	     -8.58909315	      8.84384924	      0.00000000	      0.00000000	      0.00000000	      0.00000000	      1.90271064	      0.69033843	     -0.07599699	      1.90748277	      0.69718394	     -0.26264265	      1.87685568	      0.70386017	     -0.16836960	      1.77072645	      0.76378734	     -0.15082597	      1.77065735	      0.76093045	     -0.20568628	      1.81088110	      0.65580150	     -0.11180433	      1.81309465	      0.66422246	     -0.23337186	      1.81198787	      0.66001198	     -0.17258810	      1.66780131	      0.34533058	     -0.06509965	      1.66737881	      0.35309457	     -0.16531034	      1.71383347	      0.43447029	      0.01241769	      1.77273745	      0.47329536	     -0.05400424	      1.74265470	      0.39530290	     -0.06927575	      1.43638692	      0.12793986	     -0.08288198	      1.44706474	      0.13186486	     -0.14190917	      1.49440380	      0.21561936	     -0.00977694	      1.54326621	      0.24628791	     -0.06908922	      1.68051106	      0.35447180	     -0.11864148	      1.44953454	      0.13365631	     -0.12471629	      1.46552649	      0.02885685	     -0.11657796	      1.97431971	      0.36653070	     -0.26339614	      1.98265198	      0.36836145	     -0.15961567	      2.04503161	      0.51862274	     -0.25959230	      1.96210310	      0.54138321	     -0.20161823	      1.99072387	      0.45901143	     -0.19163355	      2.01829523	      0.05088058	     -0.24250724	      2.02244161	      0.05675062	     -0.17923643	      2.09002593	      0.16467736	     -0.25338272	      2.02202122	      0.21011631	     -0.22981428	      1.97326185	      0.37834267	     -0.21689728	      2.02457494	      0.06344966	     -0.19803198	      2.12089385	      0.03358432	     -0.22063691	      1.84931978	      1.08077551	     -0.13162080	      1.84027517	      1.07869625	     -0.24664817	      1.76564415	      1.09517895	     -0.18235202	      1.84356202	      1.06724764	     -0.19139533	      1.90829816	      0.93828664	     -0.19348783	      1.81563600	      0.64999200	     -0.17621500	      1.80823600	      0.65197200	     -0.10920200	      1.81316100	      0.65958200	     -0.23470400	      1.68431500	      0.36247600	     -0.11852500	      1.97082500	      0.38037500	     -0.20982000	      1.44729000	      0.13460200	     -0.11117800	      2.02336900	      0.06034900	     -0.21368900	      1.87823700	      0.71699500	     -0.16559100	      1.87454300	      0.71128600	     -0.07144200	      1.88193100	      0.72270400	     -0.25973900	      1.73347500	      0.76102100	     -0.15425200	      1.73329900	      0.75682500	     -0.20922900	      1.68260500	      0.36158300	     -0.06806200	      1.97175400	      0.37645800	     -0.25965800	      1.68391900	      0.36162600	     -0.16703000	      1.98555600	      0.38797800	     -0.15459700	      1.44317600	      0.13993900	     -0.07836300	      2.01704600	      0.05972100	     -0.24759900	      1.44695000	      0.14362400	     -0.13734800	      2.01905800	      0.06598500	     -0.18510800	      1.76630100	      1.10171200	     -0.18361300	      1.85484400	      1.06847300	     -0.12477600	      1.84616400	      1.06612700	     -0.25101700	      1.84540500	      1.05519000	     -0.18965600	      1.88497300	      0.91644100	     -0.18929200	      1.71885200	      0.44884200	      0.01161100	      2.03868300	      0.53766000	     -0.25438300	      1.77089400	      0.49389700	     -0.05407400	      1.95041600	      0.55691200	     -0.20352300	      1.75206400	      0.41291300	     -0.07009100	      1.98667800	      0.47814400	     -0.18883600	      1.50702700	      0.22301700	     -0.00717800	      2.09046400	      0.17163800	     -0.25370400	      1.55145300	      0.25112300	     -0.06766400	      2.02842000	      0.21968000	     -0.23045300	      1.47510500	      0.04569800	     -0.12008900	      2.11573600	      0.04322700	     -0.21791100	     17.28414357	     48.50680290	      4.15903151	      1.48888782	      0.00000000	     -0.13351123	    -68.63289104	    309.94375515	      9.95649063	      2.01680090	      0.00000000	     -0.22013516	      0.00000000	      0.04952811	      0.00000000	      0.00000000	      1.61668701	      0.00000000	      1.81563604	      0.64999199	     -0.17621469	      1.80823636	      0.65197229	     -0.10920180	      1.81316066	      0.65958250	     -0.23470378	      1.68431473	      0.36247635	     -0.11852492	      1.97082496	      0.38037524	     -0.20982009	      1.44728982	      0.13460180	     -0.11117804	      2.02336860	      0.06034901	     -0.21368918	      1.87823701	      0.71699464	     -0.16559061	      1.87454271	      0.71128565	     -0.07144174	      1.88193119	      0.72270370	     -0.25973949	      1.73347461	      0.76102138	     -0.15425229	      1.73329854	      0.75682485	     -0.20922908	      1.68260527	      0.36158296	     -0.06806177	      1.97175443	      0.37645844	     -0.25965777	      1.68391931	      0.36162648	     -0.16703036	      1.98555624	      0.38797787	     -0.15459713	      1.44317579	      0.13993903	     -0.07836282	      2.01704645	      0.05972097	     -0.24759915	      1.44695044	      0.14362411	     -0.13734771	      2.01905823	      0.06598490	     -0.18510807	      1.76630139	      1.10171175	     -0.18361330	      1.85484374	      1.06847262	     -0.12477575	      1.84616446	      1.06612694	     -0.25101733	      1.84540462	      1.05518961	     -0.18965617	      1.88497329	      0.91644067	     -0.18929185	      1.71885169	      0.44884241	      0.01161146	      2.03868341	      0.53765976	     -0.25438282	      1.77089417	      0.49389741	     -0.05407413	      1.95041609	      0.55691242	     -0.20352316	      1.75206423	      0.41291258	     -0.07009117	      1.98667753	      0.47814399	     -0.18883573	      1.50702727	      0.22301674	     -0.00717810	      2.09046412	      0.17163813	     -0.25370371	      1.55145347	      0.25112346	     -0.06766388	      2.02842021	      0.21968034	     -0.23045334	      1.47510469	      0.04569812	     -0.12008907	      2.11573553	      0.04322663	     -0.21791144
      0.60000000	      1.87928223	      0.70608180	     -0.17054325	     -3.80079208	      4.42668098	     -0.47289605	    -18.35871057	     -3.56878459	     -0.69839734	    -25.73843233	    -19.28969407	     32.84615654	      6.69408824	     -4.04025055	    -21.01414170	     -7.17169891	     -1.43418063	     -8.94881153	      8.55555798	      0.00000000	      0.00000000	      0.00000000	      0.00000000	      1.91578049	      0.69121019	     -0.07831356	      1.91965584	      0.69943596	     -0.26492426	      1.88947638	      0.70539804	     -0.17045917	      1.78339893	      0.76513121	     -0.15196647	      1.78306897	      0.76267929	     -0.20684542	      1.82379994	      0.65688410	     -0.11393560	      1.82542720	      0.66620343	     -0.23544683	      1.82461357	      0.66154376	     -0.17469122	      1.68746689	      0.34377229	     -0.06474585	      1.68625171	      0.35100627	     -0.16498972	      1.73213451	      0.43424383	      0.01202320	      1.78980299	      0.47393162	     -0.05497057	      1.76124332	      0.39525671	     -0.06965451	      1.44980428	      0.13302202	     -0.07979345	      1.46015976	      0.13636295	     -0.13891395	      1.51078081	      0.21939092	     -0.00754198	      1.56005139	      0.24839310	     -0.06735273	      1.69990784	      0.35244919	     -0.11841969	      1.46280325	      0.13816696	     -0.12174823	      1.47120301	      0.03244414	     -0.11419625	      1.98407282	      0.36693459	     -0.26346631	      1.99091928	      0.36858100	     -0.15957416	      2.05624585	      0.51830408	     -0.25847025	      1.97271921	      0.54184123	     -0.20167701	      2.00036382	      0.45917617	     -0.19137092	      2.01966263	      0.05021961	     -0.24229757	      2.02298134	      0.05592704	     -0.17896309	      2.09444069	      0.16215193	     -0.25192423	      2.02726539	      0.20929674	     -0.22934870	      1.98263280	      0.37870513	     -0.21697272	      2.02557506	      0.06258546	     -0.19771513	      2.12173226	      0.03138221	     -0.21917214	      1.86161267	      1.08227265	     -0.13266279	      1.85252896	      1.08026047	     -0.24768827	      1.77790417	      1.09662413	     -0.18335450	      1.85584732	      1.06877856	     -0.19244422	      1.92071459	      0.93988529	     -0.19464551	      1.82846600	      0.65125800	     -0.17775700	      1.82125400	      0.65276800	     -0.11086000	      1.82563700	      0.66133500	     -0.23632000	      1.70296600	      0.35990100	     -0.11756900	      1.97990300	      0.38100300	     -0.20961900	      1.46046000	      0.13938500	     -0.10998100	      2.02435500	      0.05988800	     -0.21311700	      1.89096800	      0.71826900	     -0.16705100	      1.88767900	      0.71184200	     -0.07293200	      1.89425600	      0.72469600	     -0.26116900	      1.74597800	      0.76206800	     -0.15409900	      1.74547300	      0.75842600	     -0.20920600	      1.70159900	      0.35929700	     -0.06709100	      1.98153800	      0.37715700	     -0.25944400	      1.70470000	      0.35637700	     -0.16578900	      1.97238200	      0.38531700	     -0.15415600	      1.45654900	      0.14481500	     -0.07715700	      2.01875400	      0.05948400	     -0.24715700	      1.46012700	      0.14867800	     -0.13594500	      2.02017800	      0.06556500	     -0.18461700	      1.77842800	      1.10312200	     -0.18454800	      1.86721900	      1.06997000	     -0.12610900	      1.85823600	      1.06744800	     -0.25210800	      1.85787800	      1.05676000	     -0.19081200	      1.89727600	      0.91786700	     -0.19038200	      1.73649100	      0.44766700	      0.01157000	      2.05011500	      0.53803400	     -0.25298200	      1.78795700	      0.49270800	     -0.05484000	      1.96166500	      0.55753500	     -0.20202700	      1.77120700	      0.41097000	     -0.06954100	      1.98667600	      0.47522200	     -0.18681500	      1.52276700	      0.22601500	     -0.00601300	      2.09552400	      0.16938200	     -0.25159500	      1.56840300	      0.25234000	     -0.06624100	      2.02713200	      0.21678500	     -0.22743700	      1.48194100	      0.04821100	     -0.11965700	      2.11712000	      0.04135300	     -0.21689400	     11.04389208	     30.67223664	      2.93462820	      1.49109937	      0.00000000	     -0.13328726	    -75.69110480	    334.41545423	     13.07491334	      2.02284094	      0.00000000	     -0.22001237	      0.00000000	     -0.00432899	      0.00000000	      0.00000000	      1.85109546	      0.00000000	      1.82846594	      0.65125781	     -0.17775668	      1.82125425	      0.65276831	     -0.11085980	      1.82563722	      0.66133541	     -0.23632017	      1.70296633	      0.35990086	     -0.11756869	      1.97990251	      0.38100260	     -0.20961860	      1.46045959	      0.13938458	     -0.10998144	      2.02435517	      0.05988831	     -0.21311745	      1.89096761	      0.71826887	     -0.16705090	      1.88767946	      0.71184194	     -0.07293229	      1.89425564	      0.72469574	     -0.26116949	      1.74597752	      0.76206791	     -0.15409912	      1.74547267	      0.75842589	     -0.20920610	      1.70159888	      0.35929683	     -0.06709081	      1.98153841	      0.37715706	     -0.25944364	      1.70469964	      0.35637739	     -0.16578893	      1.97238159	      0.38531661	     -0.15415633	      1.45654905	      0.14481451	     -0.07715654	      2.01875401	      0.05948383	     -0.24715732	      1.46012735	      0.14867829	     -0.13594463	      2.02017760	      0.06556451	     -0.18461685	      1.77842760	      1.10312247	     -0.18454818	      1.86721873	      1.06996953	     -0.12610891	      1.85823572	      1.06744850	     -0.25210765	      1.85787773	      1.05675972	     -0.19081156	      1.89727581	      0.91786695	     -0.19038233	      1.73649108	      0.44766721	      0.01156965	      2.05011511	      0.53803432	     -0.25298199	      1.78795671	      0.49270824	     -0.05484030	      1.96166480	      0.55753493	     -0.20202729	      1.77120686	      0.41096959	     -0.06954102	      1.98667622	      0.47522235	     -0.18681456	      1.52276671	      0.22601466	     -0.00601258	      2.09552431	      0.16938199	     -0.25159481	      1.56840301	      0.25233987	     -0.06624059	      2.02713203	      0.21678467	     -0.22743721	      1.48194075	      0.04821097	     -0.11965659	      2.11712003	      0.04135313	     -0.21689352
